<?xml version="1.0" encoding="utf-8"?>
<!-- Svg Vector Icons : http://www.onlinewebfonts.com/icon -->
<!DOCTYPE svg PUBLIC "-//W3C//DTD SVG 1.1//EN" "http://www.w3.org/Graphics/SVG/1.1/DTD/svg11.dtd">
<svg version="1.1" xmlns="http://www.w3.org/2000/svg" xmlns:xlink="http://www.w3.org/1999/xlink" x="0px" y="0px" viewBox="0 0 1000 1000" enable-background="new 0 0 1000 1000" xml:space="preserve">
<metadata> Svg Vector Icons : http://www.onlinewebfonts.com/icon </metadata>
<g><g transform="translate(0.000000,511.000000) scale(0.100000,-0.100000)"><path d="M218.9,3256.2c61.4-214.7,61.4-212.8,24.9-352.8c-19.2-74.8-30.7-136.1-26.8-138c1.9-1.9,30.7-17.3,63.3-32.6c40.3-21.1,63.3-53.7,82.4-115l26.8-86.3l-145.7-381.5L100,1766.4l63.3-88.2c42.2-59.4,74.8-136.1,95.9-235.8c28.8-128.5,40.3-151.5,90.1-176.4c65.2-34.5,63.3-34.5,103.5-381.5l32.6-266.5l141.9-205.2c128.5-186,141.9-216.7,141.9-299.1c0-63.3,15.3-116.9,49.9-174.5c47.9-84.4,47.9-84.4,26.8-308.7c-11.5-122.7-23-245.4-24.9-270.4c-3.8-38.3,7.7-49.8,72.9-67.1c67.1-19.2,76.7-30.7,82.4-82.4c5.8-49.8,17.3-63.3,63.3-72.9c65.2-15.3,67.1-19.2,17.3-147.6c-51.8-136.1-49.9-145.7,28.8-161.1c78.6-13.4,80.5-24.9,26.8-141.9l-38.3-86.3l49.9-40.3c49.9-40.3,49.9-40.3,26.8-159.1c-23-105.4-21.1-134.2,17.3-287.6c40.3-164.9,40.3-174.5,9.6-333.6l-32.6-163l61.3-69c42.2-49.8,61.4-90.1,61.4-134.2v-63.3l245.4-11.5c134.2-5.8,757.3-26.9,1384.3-46c1129.3-32.6,1156.1-32.6,2588.4,9.6c795.7,24.9,1589.5,47.9,1763.9,53.7l316.3,11.5l186-210.9c182.1-205.2,189.8-210.9,276.1-218.6l88.2-5.7l-11.5,95.9c-5.8,51.8-15.4,134.2-21.1,182.1l-11.5,86.3l184,103.5c99.7,55.6,189.8,117,199.4,134.2c7.6,17.3,34.5,99.7,59.4,184.1c36.4,124.6,65.2,178.3,155.3,291.4l113.1,136.1l-26.9,140c-24.9,130.4-32.6,145.7-134.2,243.5c-59.4,55.6-107.3,113.1-107.3,124.6c0,9.6,23,103.5,49.8,205.2l49.8,184.1l232,34.5c197.5,28.8,266.5,49.9,450.6,132.3c291.5,132.3,339.4,184.1,358.6,385.4c13.4,143.8,15.3,147.6,107.4,230.1l94,84.4l28.8,209c23,180.2,17.3,335.5-13.4,358.5c-1.9,1.9-88.2,65.2-189.8,140l-184.1,136.1l-24.9,117l-24.9,117l-149.5,95.9c-113.1,72.9-151.5,107.4-151.5,138.1c0,76.7-103.5,360.4-134.2,368.1c-15.4,5.8-118.9,26.8-230.1,49.9c-212.8,46-283.8,86.3-324,189.8c-11.5,26.8-55.6,209-99.7,402.6l-78.6,350.9l61.4,138c32.6,74.8,65.2,145.7,70.9,159.1c5.8,13.4-26.9,42.2-78.6,65.2c-80.5,40.3-90.1,51.8-138,189.8l-49.9,145.7l-569.4-7.7c-2590.3-30.7-3428.2-32.6-5034.9-11.5C88.5,3296.4,207.4,3296.4,218.9,3256.2z"/></g></g>
</svg>